<svg xmlns="http://www.w3.org/2000/svg" viewBox="0 0 60 75" x="0px" y="0px"><defs><style>.cls-1{fill:none;stroke:#000;stroke-linecap:round;stroke-linejoin:round;stroke-width:2px;}</style></defs><ellipse class="cls-1" cx="30" cy="18" rx="15" ry="17"/><path class="cls-1" d="M33.48,1.46l7.08-.45a1.906,1.906,0,0,1,1.46.49A22.04662,22.04662,0,0,1,49,17.86C49,29.54,40.49,39,30,39S11,29.54,11,17.86A22.04662,22.04662,0,0,1,17.98,1.5a1.906,1.906,0,0,1,1.46-.49l6.98.47h.02"/><path class="cls-1" d="M49,18V39.99a7.98428,7.98428,0,0,1-1.98,5.27L36.2,57.63A4.00786,4.00786,0,0,1,33.18,59H26.82a4.00786,4.00786,0,0,1-3.02-1.37L12.98,45.26A7.98428,7.98428,0,0,1,11,39.99V18"/><line class="cls-1" x1="25" y1="58.56" x2="25" y2="38.26"/><line class="cls-1" x1="35" y1="58.56" x2="35" y2="38.26"/><path class="cls-1" d="M24.8,38.2l-.26.26a5.46981,5.46981,0,0,1-7.38.34A5.99686,5.99686,0,0,1,15,34.19V30.88"/><path class="cls-1" d="M45,30.88v3.31a5.99686,5.99686,0,0,1-2.16,4.61,5.46981,5.46981,0,0,1-7.38-.34l-.26-.26"/><path class="cls-1" d="M59,32l-1.63-9.48A21.87032,21.87032,0,0,0,47.04,7.65l-.59-.36"/><path class="cls-1" d="M54,40V30a19.56518,19.56518,0,0,0-5.11-14.2"/><path class="cls-1" d="M13.55,7.29l-.59.36A21.87032,21.87032,0,0,0,2.63,22.52L1,32"/><path class="cls-1" d="M11.11,15.8A19.56518,19.56518,0,0,0,6,30V40"/><path class="cls-1" d="M15.66,4H13.63A14.94575,14.94575,0,0,0,2.31,9.47167L1,11"/><path class="cls-1" d="M59,11,57.69,9.47163A14.94575,14.94575,0,0,0,46.37,4H44.34"/></svg>